<?xml version="1.0" encoding="UTF-8"?>
<svg xmlns="http://www.w3.org/2000/svg" viewBox="0 0 1180 720" role="img" aria-labelledby="title desc">
  <title id="title">Logo JASS Quilcata</title>
  <desc id="desc">Grifo dorado con manija roja vertiendo agua celeste.</desc>
  <defs>
    <linearGradient id="gold" x1="170" y1="260" x2="855" y2="420" gradientUnits="userSpaceOnUse">
      <stop offset="0" stop-color="#ffe5a4"/>
      <stop offset="0.22" stop-color="#d79745"/>
      <stop offset="0.42" stop-color="#fff1b8"/>
      <stop offset="0.68" stop-color="#d49a4c"/>
      <stop offset="1" stop-color="#ffe28b"/>
    </linearGradient>
    <linearGradient id="goldDark" x1="150" y1="230" x2="860" y2="430" gradientUnits="userSpaceOnUse">
      <stop offset="0" stop-color="#8a592c"/>
      <stop offset="0.5" stop-color="#432415"/>
      <stop offset="1" stop-color="#9a642f"/>
    </linearGradient>
    <linearGradient id="red" x1="410" y1="95" x2="805" y2="160" gradientUnits="userSpaceOnUse">
      <stop offset="0" stop-color="#f36b65"/>
      <stop offset="0.52" stop-color="#b9272d"/>
      <stop offset="1" stop-color="#fa6660"/>
    </linearGradient>
    <linearGradient id="metal" x1="515" y1="150" x2="650" y2="240" gradientUnits="userSpaceOnUse">
      <stop offset="0" stop-color="#f6f7f7"/>
      <stop offset="0.35" stop-color="#8f979b"/>
      <stop offset="0.65" stop-color="#ffffff"/>
      <stop offset="1" stop-color="#5a6469"/>
    </linearGradient>
    <linearGradient id="water" x1="695" y1="365" x2="875" y2="680" gradientUnits="userSpaceOnUse">
      <stop offset="0" stop-color="#d9fbff"/>
      <stop offset="0.28" stop-color="#85e6ff"/>
      <stop offset="0.62" stop-color="#22bfe5"/>
      <stop offset="1" stop-color="#0a83bd"/>
    </linearGradient>
    <linearGradient id="waterHi" x1="705" y1="380" x2="840" y2="620" gradientUnits="userSpaceOnUse">
      <stop offset="0" stop-color="#ffffff" stop-opacity="0.9"/>
      <stop offset="1" stop-color="#c7f7ff" stop-opacity="0.1"/>
    </linearGradient>
    <filter id="shadow" x="-20%" y="-20%" width="140%" height="150%">
      <feDropShadow dx="0" dy="13" stdDeviation="9" flood-color="#071923" flood-opacity="0.33"/>
    </filter>
    <filter id="smallShadow" x="-30%" y="-30%" width="160%" height="160%">
      <feDropShadow dx="0" dy="4" stdDeviation="4" flood-color="#06141b" flood-opacity="0.28"/>
    </filter>
  </defs>

  <g filter="url(#shadow)">
    <path d="M192 315c-72 2-116 45-116 100 0 58 45 101 113 101h79c23 0 42-19 42-42V356c0-23-19-42-42-42l-76 1Z" fill="url(#gold)" stroke="#2b1913" stroke-width="16" stroke-linejoin="round"/>
    <path d="M105 374c40-25 83-23 122-6M103 462c50 28 101 26 153 0" fill="none" stroke="#fff4bd" stroke-width="14" stroke-linecap="round" opacity=".65"/>
    <path d="M267 310h74c43 0 77 34 77 77v8h322c109 0 197 88 197 197v18" fill="none" stroke="url(#goldDark)" stroke-width="108" stroke-linecap="round" stroke-linejoin="round"/>
    <path d="M267 310h74c43 0 77 34 77 77v8h322c109 0 197 88 197 197v18" fill="none" stroke="url(#gold)" stroke-width="80" stroke-linecap="round" stroke-linejoin="round"/>
    <path d="M318 347c52 32 111 40 190 38h296c50 0 88 19 112 54" fill="none" stroke="#fff0b0" stroke-width="19" stroke-linecap="round" opacity=".72"/>
    <path d="M385 440h331c82 0 156 42 189 109" fill="none" stroke="#8c5627" stroke-width="14" stroke-linecap="round" opacity=".48"/>

    <path d="M303 316c-12 24-12 166 0 190" fill="none" stroke="#4b2b1d" stroke-width="15" stroke-linecap="round"/>
    <path d="M340 325c-16 33-15 138 2 174" fill="none" stroke="#f4c76f" stroke-width="22" stroke-linecap="round"/>
    <path d="M365 334c-13 30-12 119 3 150" fill="none" stroke="#3a86a1" stroke-width="13" stroke-linecap="round"/>
    <path d="M392 348c-12 29-11 97 4 124" fill="none" stroke="#6d3d22" stroke-width="13" stroke-linecap="round"/>

    <path d="M585 164h70v112h-70z" rx="18" fill="url(#metal)" stroke="#212629" stroke-width="13"/>
    <path d="M548 248h146c27 0 49 22 49 49v23H499v-23c0-27 22-49 49-49Z" fill="url(#gold)" stroke="#2d1a13" stroke-width="15"/>
    <path d="M542 228h157c20 0 36 16 36 36v8c0 20-16 36-36 36H542c-20 0-36-16-36-36v-8c0-20 16-36 36-36Z" fill="url(#metal)" stroke="#24292c" stroke-width="13"/>
    <path d="M532 264h54M622 264h90" stroke="#ffffff" stroke-width="12" stroke-linecap="round" opacity=".8"/>

    <path d="M349 104h174c17 0 31 14 31 31v39H349c-19 0-35-16-35-35s16-35 35-35Z" fill="url(#red)" stroke="#401114" stroke-width="14"/>
    <path d="M686 104h173c19 0 35 16 35 35s-16 35-35 35H655v-39c0-17 14-31 31-31Z" fill="url(#red)" stroke="#401114" stroke-width="14"/>
    <path d="M531 90h149c24 0 44 20 44 44v42H487v-42c0-24 20-44 44-44Z" fill="url(#red)" stroke="#401114" stroke-width="14"/>
    <path d="M348 128h175M692 128h166M536 119h140" stroke="#ff9a90" stroke-width="13" stroke-linecap="round" opacity=".72"/>
    <path d="M890 515h92c28 0 51 23 51 51v22c0 28-23 51-51 51h-92c-28 0-51-23-51-51v-22c0-28 23-51 51-51Z" fill="url(#gold)" stroke="#2b1913" stroke-width="15"/>
    <path d="M871 548h137M875 604h133" stroke="#8b5427" stroke-width="12" stroke-linecap="round" opacity=".55"/>
  </g>

  <g filter="url(#smallShadow)">
    <path d="M826 604c-13-33-10-66 8-98 22-40 55-68 100-87 44 19 77 47 99 87 18 32 21 65 8 98-14 38-45 70-69 94-17 17-27 33-38 33s-21-16-38-33c-24-24-55-56-70-94Z" fill="url(#water)" stroke="#057aa8" stroke-width="12"/>
    <path d="M870 525c12 38 55 38 68 0M956 525c12 38 55 38 67 0M826 590c16 46 67 46 83 0M918 590c16 46 68 46 84 0M857 662c19 47 73 47 92 0" fill="none" stroke="#044e79" stroke-width="11" stroke-linecap="round" opacity=".45"/>
    <path d="M845 536c21-36 52-62 92-77 39 16 68 42 87 77" fill="none" stroke="url(#waterHi)" stroke-width="18" stroke-linecap="round" opacity=".9"/>
    <path d="M891 459c-18 28-15 75 14 89M969 465c17 27 13 70-12 87M914 614c-19 30-14 70 18 88" fill="none" stroke="#ffffff" stroke-width="11" stroke-linecap="round" opacity=".72"/>
    <circle cx="807" cy="580" r="12" fill="#45d9ff" stroke="#047db2" stroke-width="6"/>
    <circle cx="1084" cy="608" r="11" fill="#58ddff" stroke="#047db2" stroke-width="6"/>
    <circle cx="1073" cy="553" r="8" fill="#7ee9ff" stroke="#047db2" stroke-width="5"/>
    <circle cx="773" cy="660" r="15" fill="#6be5ff" stroke="#047db2" stroke-width="6"/>
    <circle cx="1019" cy="703" r="18" fill="#8ff0ff" stroke="#047db2" stroke-width="6"/>
    <circle cx="929" cy="704" r="9" fill="#8ff0ff" stroke="#047db2" stroke-width="5"/>
    <circle cx="1109" cy="665" r="8" fill="#83efff" stroke="#047db2" stroke-width="5"/>
  </g>
</svg>
